<svg width="76" height="27" viewBox="0 0 76 27" fill="none" xmlns="http://www.w3.org/2000/svg">
<path d="M0 9.12899V0.153859H3.43421C4.14447 0.153859 4.75651 0.286349 5.27032 0.551329C5.78413 0.807762 6.18082 1.17959 6.46039 1.66681C6.73996 2.15403 6.87975 2.73528 6.87975 3.41055C6.87975 4.07728 6.73996 4.65425 6.46039 5.14147C6.18082 5.62869 5.78413 6.00479 5.27032 6.26977C4.75651 6.5262 4.14447 6.65442 3.43421 6.65442H1.02006L1.83611 5.71844V9.12899H0ZM1.83611 5.94923L1.02006 4.96197H3.3322C3.8989 4.96197 4.32204 4.8252 4.60161 4.55168C4.88118 4.27815 5.02097 3.89777 5.02097 3.41055C5.02097 2.91478 4.88118 2.53013 4.60161 2.25661C4.32204 1.98308 3.8989 1.84631 3.3322 1.84631H1.02006L1.83611 0.859048V5.94923Z" fill="url(#paint0_linear_1650_2363)"/>
<path d="M8.1906 9.12899V0.153859H10.0267V9.12899H8.1906Z" fill="url(#paint1_linear_1650_2363)"/>
<path d="M15.7631 9.28285C15.136 9.28285 14.5542 9.16746 14.0177 8.93667C13.4888 8.70588 13.0279 8.38107 12.635 7.96223C12.2496 7.54339 11.9474 7.05189 11.7282 6.48774C11.5167 5.92359 11.4109 5.30815 11.4109 4.64143C11.4109 3.9747 11.5167 3.35926 11.7282 2.79511C11.9474 2.23096 12.2534 1.73947 12.6463 1.32063C13.0392 0.901787 13.5001 0.576972 14.029 0.346183C14.558 0.115394 15.1322 0 15.7518 0C16.379 0 16.9532 0.115394 17.4746 0.346183C18.0035 0.576972 18.4606 0.901787 18.846 1.32063C19.2389 1.73947 19.5449 2.23096 19.764 2.79511C19.9832 3.35072 20.0927 3.96615 20.0927 4.64143C20.0927 5.30815 19.9832 5.92786 19.764 6.50056C19.5449 7.06471 19.2389 7.55621 18.846 7.97505C18.4606 8.38534 18.0035 8.70588 17.4746 8.93667C16.9532 9.16746 16.3827 9.28285 15.7631 9.28285ZM15.7518 7.51347C16.1069 7.51347 16.4318 7.44509 16.7265 7.30832C17.0288 7.17156 17.2932 6.97496 17.5199 6.71853C17.7466 6.4621 17.9204 6.15865 18.0413 5.80819C18.1697 5.45774 18.234 5.06881 18.234 4.64143C18.234 4.21404 18.1697 3.82512 18.0413 3.47466C17.9204 3.1242 17.7466 2.82076 17.5199 2.56432C17.3008 2.30789 17.0401 2.11129 16.7379 1.97453C16.4356 1.83777 16.1069 1.76938 15.7518 1.76938C15.3967 1.76938 15.068 1.83777 14.7657 1.97453C14.4711 2.11129 14.2104 2.30789 13.9837 2.56432C13.757 2.82076 13.5795 3.1242 13.451 3.47466C13.3301 3.82512 13.2697 4.21404 13.2697 4.64143C13.2697 5.06027 13.3301 5.44919 13.451 5.80819C13.5795 6.15865 13.7532 6.4621 13.9724 6.71853C14.199 6.97496 14.4635 7.17156 14.7657 7.30832C15.068 7.44509 15.3967 7.51347 15.7518 7.51347Z" fill="url(#paint2_linear_1650_2363)"/>
<path d="M21.4727 9.12899V0.153859H22.9914L27.6724 6.61596H26.9356V0.153859H28.7491V9.12899H27.2417L22.5494 2.6669H23.2861V9.12899H21.4727Z" fill="url(#paint3_linear_1650_2363)"/>
<path d="M0 26.8461V17.871H3.60422C4.4656 17.871 5.22498 18.0591 5.88236 18.4352C6.53973 18.8027 7.05354 19.3199 7.42378 19.9866C7.79403 20.6533 7.97915 21.444 7.97915 22.3586C7.97915 23.2646 7.79403 24.0553 7.42378 24.7306C7.05354 25.3973 6.53973 25.9187 5.88236 26.2948C5.22498 26.6624 4.4656 26.8461 3.60422 26.8461H0ZM1.83611 25.1409H3.51355C4.04247 25.1409 4.49961 25.0297 4.88496 24.8075C5.27788 24.5767 5.58012 24.2519 5.79168 23.8331C6.01081 23.4142 6.12037 22.9227 6.12037 22.3586C6.12037 21.7859 6.01081 21.2944 5.79168 20.8841C5.58012 20.4652 5.27788 20.1447 4.88496 19.9225C4.49961 19.6917 4.04247 19.5763 3.51355 19.5763H1.83611V25.1409Z" fill="url(#paint4_linear_1650_2363)"/>
<path d="M11.0526 21.4867H14.8722V23.1022H11.0526V21.4867ZM11.1886 25.1793H15.5069V26.8461H9.36385V17.871H15.3595V19.5378H11.1886V25.1793Z" fill="url(#paint5_linear_1650_2363)"/>
<path d="M16.9678 26.8461V17.871H18.8039V25.1537H22.7822V26.8461H16.9678Z" fill="url(#paint6_linear_1650_2363)"/>
<path d="M25.4969 21.4867H29.3164V23.1022H25.4969V21.4867ZM25.6329 25.1793H29.9511V26.8461H23.8081V17.871H29.8038V19.5378H25.6329V25.1793Z" fill="url(#paint7_linear_1650_2363)"/>
<path d="M35.243 27C34.6158 27 34.0378 26.8889 33.5089 26.6666C32.9875 26.4358 32.5303 26.111 32.1374 25.6922C31.7521 25.2734 31.4498 24.7819 31.2307 24.2177C31.0191 23.6536 30.9134 23.0338 30.9134 22.3586C30.9134 21.6833 31.0191 21.0636 31.2307 20.4994C31.4498 19.9353 31.7559 19.4438 32.1488 19.025C32.5417 18.6061 33.0026 18.2856 33.5315 18.0633C34.0604 17.8325 34.6423 17.7171 35.277 17.7171C35.9797 17.7171 36.6106 17.8496 37.1697 18.1146C37.7364 18.3796 38.2125 18.7642 38.5978 19.2686L37.4191 20.4994C37.132 20.1575 36.8184 19.9054 36.4784 19.743C36.1383 19.572 35.7681 19.4865 35.3676 19.4865C34.9823 19.4865 34.6309 19.5549 34.3136 19.6917C33.9962 19.8284 33.7204 20.025 33.4862 20.2815C33.2595 20.5379 33.0819 20.8413 32.9535 21.1918C32.8326 21.5423 32.7721 21.9312 32.7721 22.3586C32.7721 22.7774 32.8326 23.1621 32.9535 23.5125C33.0819 23.863 33.2595 24.1707 33.4862 24.4357C33.7204 24.6921 33.9924 24.8887 34.3022 25.0255C34.6196 25.1622 34.9672 25.2306 35.345 25.2306C35.7077 25.2306 36.059 25.1665 36.399 25.0383C36.7466 24.9015 37.0828 24.675 37.4078 24.3587L38.4505 25.8589C38.0198 26.2264 37.5173 26.5085 36.9431 26.7051C36.3764 26.9017 35.8097 27 35.243 27ZM36.773 25.5896V22.2175H38.4505V25.8589L36.773 25.5896Z" fill="url(#paint8_linear_1650_2363)"/>
<path d="M39.1133 26.8461L42.6496 17.871H44.463L48.0106 26.8461H46.0838L43.1823 18.9224H43.9076L40.9948 26.8461H39.1133ZM40.8815 24.9229L41.3688 23.3458H45.4491L45.9478 24.9229H40.8815Z" fill="url(#paint9_linear_1650_2363)"/>
<path d="M50.0787 26.8461V19.5635H47.5398V17.871H54.4536V19.5635H51.9148V26.8461H50.0787Z" fill="url(#paint10_linear_1650_2363)"/>
<path d="M55.4415 26.8461V17.871H57.2776V26.8461H55.4415Z" fill="url(#paint11_linear_1650_2363)"/>
<path d="M63.014 27C62.3869 27 61.8051 26.8846 61.2686 26.6538C60.7397 26.423 60.2788 26.0982 59.8859 25.6794C59.5005 25.2605 59.1983 24.769 58.9791 24.2049C58.7676 23.6407 58.6618 23.0253 58.6618 22.3586C58.6618 21.6918 58.7676 21.0764 58.9791 20.5123C59.1983 19.9481 59.5043 19.4566 59.8972 19.0378C60.2901 18.6189 60.751 18.2941 61.2799 18.0633C61.8089 17.8325 62.3831 17.7171 63.0027 17.7171C63.6299 17.7171 64.2041 17.8325 64.7255 18.0633C65.2544 18.2941 65.7115 18.6189 66.0969 19.0378C66.4898 19.4566 66.7958 19.9481 67.015 20.5123C67.2341 21.0679 67.3436 21.6833 67.3436 22.3586C67.3436 23.0253 67.2341 23.645 67.015 24.2177C66.7958 24.7819 66.4898 25.2734 66.0969 25.6922C65.7115 26.1025 65.2544 26.423 64.7255 26.6538C64.2041 26.8846 63.6336 27 63.014 27ZM63.0027 25.2306C63.3578 25.2306 63.6828 25.1622 63.9774 25.0255C64.2797 24.8887 64.5441 24.6921 64.7708 24.4357C64.9975 24.1792 65.1713 23.8758 65.2922 23.5253C65.4206 23.1749 65.4849 22.786 65.4849 22.3586C65.4849 21.9312 65.4206 21.5423 65.2922 21.1918C65.1713 20.8413 64.9975 20.5379 64.7708 20.2815C64.5517 20.025 64.291 19.8284 63.9888 19.6917C63.6865 19.5549 63.3578 19.4865 63.0027 19.4865C62.6476 19.4865 62.3189 19.5549 62.0167 19.6917C61.722 19.8284 61.4613 20.025 61.2346 20.2815C61.0079 20.5379 60.8304 20.8413 60.7019 21.1918C60.581 21.5423 60.5206 21.9312 60.5206 22.3586C60.5206 22.7774 60.581 23.1663 60.7019 23.5253C60.8304 23.8758 61.0041 24.1792 61.2233 24.4357C61.45 24.6921 61.7144 24.8887 62.0167 25.0255C62.3189 25.1622 62.6476 25.2306 63.0027 25.2306Z" fill="url(#paint12_linear_1650_2363)"/>
<path d="M68.7236 26.8461V17.871H70.2423L74.9233 24.3331H74.1866V17.871H76V26.8461H74.4926L69.8003 20.384H70.537V26.8461H68.7236Z" fill="url(#paint13_linear_1650_2363)"/>
<defs>
<linearGradient id="paint0_linear_1650_2363" x1="-5.85645" y1="5.36482" x2="150.202" y2="24.6897" gradientUnits="userSpaceOnUse">
<stop stop-color="#5B4FEC"/>
<stop offset="0.378153" stop-color="#D99A7F"/>
<stop offset="0.9996" stop-color="white"/>
</linearGradient>
<linearGradient id="paint1_linear_1650_2363" x1="-5.85645" y1="5.36482" x2="150.202" y2="24.6897" gradientUnits="userSpaceOnUse">
<stop stop-color="#5B4FEC"/>
<stop offset="0.378153" stop-color="#D99A7F"/>
<stop offset="0.9996" stop-color="white"/>
</linearGradient>
<linearGradient id="paint2_linear_1650_2363" x1="-5.85645" y1="5.36482" x2="150.202" y2="24.6897" gradientUnits="userSpaceOnUse">
<stop stop-color="#5B4FEC"/>
<stop offset="0.378153" stop-color="#D99A7F"/>
<stop offset="0.9996" stop-color="white"/>
</linearGradient>
<linearGradient id="paint3_linear_1650_2363" x1="-5.85645" y1="5.36482" x2="150.202" y2="24.6897" gradientUnits="userSpaceOnUse">
<stop stop-color="#5B4FEC"/>
<stop offset="0.378153" stop-color="#D99A7F"/>
<stop offset="0.9996" stop-color="white"/>
</linearGradient>
<linearGradient id="paint4_linear_1650_2363" x1="-5.85645" y1="5.36482" x2="150.202" y2="24.6897" gradientUnits="userSpaceOnUse">
<stop stop-color="#5B4FEC"/>
<stop offset="0.378153" stop-color="#D99A7F"/>
<stop offset="0.9996" stop-color="white"/>
</linearGradient>
<linearGradient id="paint5_linear_1650_2363" x1="-5.85645" y1="5.36482" x2="150.202" y2="24.6897" gradientUnits="userSpaceOnUse">
<stop stop-color="#5B4FEC"/>
<stop offset="0.378153" stop-color="#D99A7F"/>
<stop offset="0.9996" stop-color="white"/>
</linearGradient>
<linearGradient id="paint6_linear_1650_2363" x1="-5.85645" y1="5.36482" x2="150.202" y2="24.6897" gradientUnits="userSpaceOnUse">
<stop stop-color="#5B4FEC"/>
<stop offset="0.378153" stop-color="#D99A7F"/>
<stop offset="0.9996" stop-color="white"/>
</linearGradient>
<linearGradient id="paint7_linear_1650_2363" x1="-5.85645" y1="5.36482" x2="150.202" y2="24.6897" gradientUnits="userSpaceOnUse">
<stop stop-color="#5B4FEC"/>
<stop offset="0.378153" stop-color="#D99A7F"/>
<stop offset="0.9996" stop-color="white"/>
</linearGradient>
<linearGradient id="paint8_linear_1650_2363" x1="-5.85645" y1="5.36482" x2="150.202" y2="24.6897" gradientUnits="userSpaceOnUse">
<stop stop-color="#5B4FEC"/>
<stop offset="0.378153" stop-color="#D99A7F"/>
<stop offset="0.9996" stop-color="white"/>
</linearGradient>
<linearGradient id="paint9_linear_1650_2363" x1="-5.85645" y1="5.36482" x2="150.202" y2="24.6897" gradientUnits="userSpaceOnUse">
<stop stop-color="#5B4FEC"/>
<stop offset="0.378153" stop-color="#D99A7F"/>
<stop offset="0.9996" stop-color="white"/>
</linearGradient>
<linearGradient id="paint10_linear_1650_2363" x1="-5.85645" y1="5.36482" x2="150.202" y2="24.6897" gradientUnits="userSpaceOnUse">
<stop stop-color="#5B4FEC"/>
<stop offset="0.378153" stop-color="#D99A7F"/>
<stop offset="0.9996" stop-color="white"/>
</linearGradient>
<linearGradient id="paint11_linear_1650_2363" x1="-5.85645" y1="5.36482" x2="150.202" y2="24.6897" gradientUnits="userSpaceOnUse">
<stop stop-color="#5B4FEC"/>
<stop offset="0.378153" stop-color="#D99A7F"/>
<stop offset="0.9996" stop-color="white"/>
</linearGradient>
<linearGradient id="paint12_linear_1650_2363" x1="-5.85645" y1="5.36482" x2="150.202" y2="24.6897" gradientUnits="userSpaceOnUse">
<stop stop-color="#5B4FEC"/>
<stop offset="0.378153" stop-color="#D99A7F"/>
<stop offset="0.9996" stop-color="white"/>
</linearGradient>
<linearGradient id="paint13_linear_1650_2363" x1="-5.85645" y1="5.36482" x2="150.202" y2="24.6897" gradientUnits="userSpaceOnUse">
<stop stop-color="#5B4FEC"/>
<stop offset="0.378153" stop-color="#D99A7F"/>
<stop offset="0.9996" stop-color="white"/>
</linearGradient>
</defs>
</svg>
