<svg width="41" height="34" viewBox="0 0 41 34" fill="none" xmlns="http://www.w3.org/2000/svg">
<path fill-rule="evenodd" clip-rule="evenodd" d="M6.89623 1.69002C6.89623 2.6234 6.13937 3.38005 5.20573 3.38005C4.27211 3.38005 3.51525 2.6234 3.51525 1.69002C3.51525 0.756647 4.27211 0 5.20573 0C6.13937 0 6.89623 0.756647 6.89623 1.69002ZM1.0758 2.76545C1.40469 2.76545 1.67131 2.49892 1.67131 2.1701C1.67131 1.84131 1.40469 1.57476 1.0758 1.57476C0.746906 1.57476 0.480287 1.84131 0.480287 2.1701C0.480287 2.49892 0.746906 2.76545 1.0758 2.76545ZM9.47057 19.6081C9.47057 19.9369 9.20395 20.2035 8.87506 20.2035C8.54618 20.2035 8.27955 19.9369 8.27955 19.6081C8.27955 19.2793 8.54618 19.0127 8.87506 19.0127C9.20395 19.0127 9.47057 19.2793 9.47057 19.6081ZM1.19102 20.3283C1.19102 20.6572 0.924403 20.9237 0.595511 20.9237C0.266619 20.9237 0 20.6572 0 20.3283C0 19.9995 0.266619 19.733 0.595511 19.733C0.924403 19.733 1.19102 19.9995 1.19102 20.3283ZM11.2667 23.6122C11.5956 23.6122 11.8622 23.3456 11.8622 23.0169C11.8622 22.6881 11.5956 22.4215 11.2667 22.4215C10.9378 22.4215 10.6712 22.6881 10.6712 23.0169C10.6712 23.3456 10.9378 23.6122 11.2667 23.6122ZM18.9218 20.5202C18.9218 20.8491 18.6552 21.1156 18.3263 21.1156C17.9974 21.1156 17.7308 20.8491 17.7308 20.5202C17.7308 20.1914 17.9974 19.9249 18.3263 19.9249C18.6552 19.9249 18.9218 20.1914 18.9218 20.5202ZM2.62223 9.37188C2.62223 9.88099 2.2094 10.2937 1.70014 10.2937C1.19089 10.2937 0.778062 9.88099 0.778062 9.37188C0.778062 8.86277 1.19089 8.45006 1.70014 8.45006C2.2094 8.45006 2.62223 8.86277 2.62223 9.37188ZM16.6838 18.936C17.1081 18.936 17.4522 18.5921 17.4522 18.1678C17.4522 17.7436 17.1081 17.3996 16.6838 17.3996C16.2593 17.3996 15.9154 17.7436 15.9154 18.1678C15.9154 18.5921 16.2593 18.936 16.6838 18.936ZM1.95923 27.5301C1.95923 27.9544 1.61522 28.2983 1.19084 28.2983C0.766459 28.2983 0.422433 27.9544 0.422433 27.5301C0.422433 27.1059 0.766459 26.7619 1.19084 26.7619C1.61522 26.7619 1.95923 27.1059 1.95923 27.5301ZM7.10752 24.2172C7.57434 24.2172 7.95277 23.8389 7.95277 23.3721C7.95277 22.9055 7.57434 22.5272 7.10752 22.5272C6.6407 22.5272 6.26227 22.9055 6.26227 23.3721C6.26227 23.8389 6.6407 24.2172 7.10752 24.2172ZM16.8953 29.8346C16.8953 30.3014 16.5169 30.6796 16.0499 30.6796C15.5832 30.6796 15.2048 30.3014 15.2048 29.8346C15.2048 29.3679 15.5832 28.9896 16.0499 28.9896C16.5169 28.9896 16.8953 29.3679 16.8953 29.8346ZM13.6487 27.0979C14.02 27.0979 14.321 26.797 14.321 26.4257C14.321 26.0544 14.02 25.7536 13.6487 25.7536C13.2773 25.7536 12.9763 26.0544 12.9763 26.4257C12.9763 26.797 13.2773 27.0979 13.6487 27.0979ZM4.601 30.9581C4.601 31.5149 4.14946 31.9664 3.59247 31.9664C3.03547 31.9664 2.58394 31.5149 2.58394 30.9581C2.58394 30.4012 3.03547 29.9499 3.59247 29.9499C4.14946 29.9499 4.601 30.4012 4.601 30.9581ZM7.61672 7.0098C8.47078 7.0098 9.16313 6.31764 9.16313 5.46382C9.16313 4.61 8.47078 3.91784 7.61672 3.91784C6.76265 3.91784 6.07031 4.61 6.07031 5.46382C6.07031 6.31764 6.76265 7.0098 7.61672 7.0098ZM5.83043 10.8123C6.63143 10.8123 7.28079 10.1631 7.28079 9.36232C7.28079 8.56153 6.63143 7.91236 5.83043 7.91236C5.02941 7.91236 4.38006 8.56153 4.38006 9.36232C4.38006 10.1631 5.02941 10.8123 5.83043 10.8123ZM11.5357 8.64209C11.5357 9.4853 10.8519 10.1689 10.0085 10.1689C9.16502 10.1689 8.48127 9.4853 8.48127 8.64209C8.48127 7.79886 9.16502 7.11531 10.0085 7.11531C10.8519 7.11531 11.5357 7.79886 11.5357 8.64209ZM4.10124 14.2212C4.90756 14.2212 5.56121 13.5677 5.56121 12.7616C5.56121 11.9555 4.90756 11.302 4.10124 11.302C3.29492 11.302 2.64129 11.9555 2.64129 12.7616C2.64129 13.5677 3.29492 14.2212 4.10124 14.2212ZM9.63382 12.4159C9.63382 13.1849 9.01028 13.8082 8.2411 13.8082C7.47192 13.8082 6.84837 13.1849 6.84837 12.4159C6.84837 11.6469 7.47192 11.0235 8.2411 11.0235C9.01028 11.0235 9.63382 11.6469 9.63382 12.4159ZM12.4095 13.2609C13.0779 13.2609 13.6197 12.7192 13.6197 12.051C13.6197 11.3828 13.0779 10.8411 12.4095 10.8411C11.7411 10.8411 11.1993 11.3828 11.1993 12.051C11.1993 12.7192 11.7411 13.2609 12.4095 13.2609ZM11.8528 15.8343C11.8528 16.5025 11.3109 17.0442 10.6425 17.0442C9.97414 17.0442 9.43232 16.5025 9.43232 15.8343C9.43232 15.166 9.97414 14.6244 10.6425 14.6244C11.3109 14.6244 11.8528 15.166 11.8528 15.8343ZM6.47366 17.4091C7.14205 17.4091 7.68389 16.8674 7.68389 16.1993C7.68389 15.5311 7.14205 14.9893 6.47366 14.9893C5.80527 14.9893 5.26343 15.5311 5.26343 16.1993C5.26343 16.8674 5.80527 17.4091 6.47366 17.4091ZM6.09936 19.9538C6.09936 20.7174 5.48012 21.3364 4.71623 21.3364C3.95236 21.3364 3.33311 20.7174 3.33311 19.9538C3.33311 19.19 3.95236 18.571 4.71623 18.571C5.48012 18.571 6.09936 19.19 6.09936 19.9538ZM2.9581 24.9567C3.6371 24.9567 4.18755 24.4063 4.18755 23.7275C4.18755 23.0487 3.6371 22.4984 2.9581 22.4984C2.2791 22.4984 1.72866 23.0487 1.72866 23.7275C1.72866 24.4063 2.2791 24.9567 2.9581 24.9567ZM16.7893 22.6328C16.7893 23.3912 16.1744 24.0059 15.4158 24.0059C14.6573 24.0059 14.0423 23.3912 14.0423 22.6328C14.0423 21.8744 14.6573 21.2597 15.4158 21.2597C16.1744 21.2597 16.7893 21.8744 16.7893 22.6328ZM13.0053 20.6259C13.7692 20.6259 14.3884 20.0068 14.3884 19.2431C14.3884 18.4795 13.7692 17.8604 13.0053 17.8604C12.2414 17.8604 11.6222 18.4795 11.6222 19.2431C11.6222 20.0068 12.2414 20.6259 13.0053 20.6259ZM6.72337 27.1652C6.72337 27.9289 6.10413 28.548 5.34024 28.548C4.57636 28.548 3.95713 27.9289 3.95713 27.1652C3.95713 26.4015 4.57636 25.7824 5.34024 25.7824C6.10413 25.7824 6.72337 26.4015 6.72337 27.1652ZM2.29547 17.5819C2.86308 17.5819 3.32321 17.1219 3.32321 16.5545C3.32321 15.987 2.86308 15.527 2.29547 15.527C1.72787 15.527 1.26774 15.987 1.26774 16.5545C1.26774 17.1219 1.72787 17.5819 2.29547 17.5819ZM15.8292 15.4598C15.8292 16.0274 15.3692 16.4873 14.8015 16.4873C14.2339 16.4873 13.7738 16.0274 13.7738 15.4598C13.7738 14.8924 14.2339 14.4324 14.8015 14.4324C15.3692 14.4324 15.8292 14.8924 15.8292 15.4598ZM3.46741 7.10577C4.31086 7.10577 4.99461 6.4222 4.99461 5.57899C4.99461 4.73576 4.31086 4.05221 3.46741 4.05221C2.62396 4.05221 1.94022 4.73576 1.94022 5.57899C1.94022 6.4222 2.62396 7.10577 3.46741 7.10577ZM39.7935 20.9237C40.1223 20.9237 40.3889 20.6572 40.3889 20.3283C40.3889 19.9995 40.1223 19.733 39.7935 19.733C39.4646 19.733 39.1979 19.9995 39.1979 20.3283C39.1979 20.6572 39.4646 20.9237 39.7935 20.9237ZM32.1 19.6081C32.1 19.9369 31.8334 20.2035 31.5045 20.2035C31.1756 20.2035 30.909 19.9369 30.909 19.6081C30.909 19.2793 31.1756 19.0127 31.5045 19.0127C31.8334 19.0127 32.1 19.2793 32.1 19.6081ZM29.1225 23.6122C29.4514 23.6122 29.718 23.3456 29.718 23.0169C29.718 22.6881 29.4514 22.4215 29.1225 22.4215C28.7937 22.4215 28.5271 22.6881 28.5271 23.0169C28.5271 23.3456 28.7937 23.6122 29.1225 23.6122ZM22.6581 20.5202C22.6581 20.8491 22.3915 21.1156 22.0626 21.1156C21.7337 21.1156 21.4672 20.8491 21.4672 20.5202C21.4672 20.1914 21.7337 19.9249 22.0626 19.9249C22.3915 19.9249 22.6581 20.1914 22.6581 20.5202ZM39.3133 2.76545C39.6422 2.76545 39.9088 2.49892 39.9088 2.1701C39.9088 1.84131 39.6422 1.57476 39.3133 1.57476C38.9844 1.57476 38.7177 1.84131 38.7177 2.1701C38.7177 2.49892 38.9844 2.76545 39.3133 2.76545ZM39.6111 9.37196C39.6111 9.88107 39.1982 10.2938 38.689 10.2938C38.1797 10.2938 37.7669 9.88107 37.7669 9.37196C37.7669 8.86285 38.1797 8.45012 38.689 8.45012C39.1982 8.45012 39.6111 8.86285 39.6111 9.37196ZM23.7054 18.936C24.1298 18.936 24.4738 18.5921 24.4738 18.1678C24.4738 17.7436 24.1298 17.3996 23.7054 17.3996C23.2811 17.3996 22.937 17.7436 22.937 18.1678C22.937 18.5921 23.2811 18.936 23.7054 18.936ZM39.9568 27.5301C39.9568 27.9544 39.6127 28.2983 39.1884 28.2983C38.764 28.2983 38.42 27.9544 38.42 27.5301C38.42 27.1059 38.764 26.7619 39.1884 26.7619C39.6127 26.7619 39.9568 27.1059 39.9568 27.5301ZM33.2717 24.2172C33.7385 24.2172 34.1171 23.8389 34.1171 23.3721C34.1171 22.9055 33.7385 22.5272 33.2717 22.5272C32.805 22.5272 32.4266 22.9055 32.4266 23.3721C32.4266 23.8389 32.805 24.2172 33.2717 24.2172ZM25.1844 29.8346C25.1844 30.3014 24.8059 30.6796 24.3391 30.6796C23.8723 30.6796 23.4939 30.3014 23.4939 29.8346C23.4939 29.3679 23.8723 28.9896 24.3391 28.9896C24.8059 28.9896 25.1844 29.3679 25.1844 29.8346ZM26.7308 27.0979C27.1022 27.0979 27.4031 26.797 27.4031 26.4257C27.4031 26.0544 27.1022 25.7536 26.7308 25.7536C26.3594 25.7536 26.0585 26.0544 26.0585 26.4257C26.0585 26.797 26.3594 27.0979 26.7308 27.0979ZM37.7957 30.9581C37.7957 31.5149 37.3443 31.9664 36.7872 31.9664C36.2302 31.9664 35.7786 31.5149 35.7786 30.9581C35.7786 30.4012 36.2302 29.9499 36.7872 29.9499C37.3443 29.9499 37.7957 30.4012 37.7957 30.9581ZM32.7626 7.0098C33.6168 7.0098 34.309 6.31764 34.309 5.46382C34.309 4.61 33.6168 3.91784 32.7626 3.91784C31.9087 3.91784 31.2163 4.61 31.2163 5.46382C31.2163 6.31764 31.9087 7.0098 32.7626 7.0098ZM36.8639 1.69002C36.8639 2.6234 36.1071 3.38005 35.1734 3.38005C34.2399 3.38005 33.4831 2.6234 33.4831 1.69002C33.4831 0.756647 34.2399 0 35.1734 0C36.1071 0 36.8639 0.756647 36.8639 1.69002ZM34.5493 10.8123C35.3502 10.8123 35.9995 10.1631 35.9995 9.36232C35.9995 8.56153 35.3502 7.91236 34.5493 7.91236C33.7482 7.91236 33.0989 8.56153 33.0989 9.36232C33.0989 10.1631 33.7482 10.8123 34.5493 10.8123ZM31.9078 8.64209C31.9078 9.4853 31.224 10.1689 30.3806 10.1689C29.5371 10.1689 28.8535 9.4853 28.8535 8.64209C28.8535 7.79886 29.5371 7.11531 30.3806 7.11531C31.224 7.11531 31.9078 7.79886 31.9078 8.64209ZM36.2782 14.2212C37.0845 14.2212 37.7382 13.5677 37.7382 12.7616C37.7382 11.9555 37.0845 11.302 36.2782 11.302C35.4719 11.302 34.8183 11.9555 34.8183 12.7616C34.8183 13.5677 35.4719 14.2212 36.2782 14.2212ZM33.5406 12.4159C33.5406 13.1849 32.917 13.8082 32.1479 13.8082C31.3787 13.8082 30.7551 13.1849 30.7551 12.4159C30.7551 11.6469 31.3787 11.0235 32.1479 11.0235C32.917 11.0235 33.5406 11.6469 33.5406 12.4159ZM27.9792 13.2609C28.6477 13.2609 29.1895 12.7192 29.1895 12.051C29.1895 11.3828 28.6477 10.8411 27.9792 10.8411C27.3108 10.8411 26.7691 11.3828 26.7691 12.051C26.7691 12.7192 27.3108 13.2609 27.9792 13.2609ZM30.9476 15.8343C30.9476 16.5025 30.4057 17.0442 29.7373 17.0442C29.0688 17.0442 28.5271 16.5025 28.5271 15.8343C28.5271 15.166 29.0688 14.6244 29.7373 14.6244C30.4057 14.6244 30.9476 15.166 30.9476 15.8343ZM33.9153 17.4093C34.5837 17.4093 35.1256 16.8675 35.1256 16.1993C35.1256 15.5311 34.5837 14.9893 33.9153 14.9893C33.2469 14.9893 32.7051 15.5311 32.7051 16.1993C32.7051 16.8675 33.2469 17.4093 33.9153 17.4093ZM37.0466 19.9538C37.0466 20.7174 36.4274 21.3364 35.6634 21.3364C34.8996 21.3364 34.2804 20.7174 34.2804 19.9538C34.2804 19.19 34.8996 18.571 35.6634 18.571C36.4274 18.571 37.0466 19.19 37.0466 19.9538ZM37.4213 24.9567C38.1003 24.9567 38.6507 24.4063 38.6507 23.7275C38.6507 23.0487 38.1003 22.4984 37.4213 22.4984C36.7423 22.4984 36.1918 23.0487 36.1918 23.7275C36.1918 24.4063 36.7423 24.9567 37.4213 24.9567ZM26.337 22.6328C26.337 23.3912 25.7221 24.0059 24.9635 24.0059C24.2049 24.0059 23.59 23.3912 23.59 22.6328C23.59 21.8744 24.2049 21.2597 24.9635 21.2597C25.7221 21.2597 26.337 21.8744 26.337 22.6328ZM27.3743 20.6259C28.1381 20.6259 28.7574 20.0068 28.7574 19.2431C28.7574 18.4795 28.1381 17.8604 27.3743 17.8604C26.6104 17.8604 25.9911 18.4795 25.9911 19.2431C25.9911 20.0068 26.6104 20.6259 27.3743 20.6259ZM36.4317 27.1652C36.4317 27.9289 35.8125 28.548 35.0487 28.548C34.2847 28.548 33.6655 27.9289 33.6655 27.1652C33.6655 26.4015 34.2847 25.7824 35.0487 25.7824C35.8125 25.7824 36.4317 26.4015 36.4317 27.1652ZM38.0841 17.5819C38.6516 17.5819 39.1118 17.1219 39.1118 16.5545C39.1118 15.987 38.6516 15.527 38.0841 15.527C37.5164 15.527 37.0563 15.987 37.0563 16.5545C37.0563 17.1219 37.5164 17.5819 38.0841 17.5819ZM26.6156 15.4598C26.6156 16.0274 26.1554 16.4873 25.5878 16.4873C25.0202 16.4873 24.5601 16.0274 24.5601 15.4598C24.5601 14.8924 25.0202 14.4324 25.5878 14.4324C26.1554 14.4324 26.6156 14.8924 26.6156 15.4598ZM36.9216 7.10577C37.765 7.10577 38.4487 6.4222 38.4487 5.57899C38.4487 4.73576 37.765 4.05221 36.9216 4.05221C36.0781 4.05221 35.3943 4.73576 35.3943 5.57899C35.3943 6.4222 36.0781 7.10577 36.9216 7.10577ZM20.1898 24.1789C20.8582 24.1789 21.4001 23.6372 21.4001 22.9689C21.4001 22.3007 20.8582 21.7591 20.1898 21.7591C19.5214 21.7591 18.9797 22.3007 18.9797 22.9689C18.9797 23.6372 19.5214 24.1789 20.1898 24.1789ZM21.4001 29.5658C21.4001 30.234 20.8582 30.7756 20.1898 30.7756C19.5214 30.7756 18.9797 30.234 18.9797 29.5658C18.9797 28.8975 19.5214 28.3558 20.1898 28.3558C20.8582 28.3558 21.4001 28.8975 21.4001 29.5658ZM17.7981 27.2708C18.4665 27.2708 19.0083 26.7291 19.0083 26.0609C19.0083 25.3926 18.4665 24.8509 17.7981 24.8509C17.1297 24.8509 16.5878 25.3926 16.5878 26.0609C16.5878 26.7291 17.1297 27.2708 17.7981 27.2708ZM23.7917 26.0609C23.7917 26.7291 23.2498 27.2708 22.5814 27.2708C21.9131 27.2708 21.3712 26.7291 21.3712 26.0609C21.3712 25.3926 21.9131 24.8509 22.5814 24.8509C23.2498 24.8509 23.7917 25.3926 23.7917 26.0609ZM18.432 33.7811C18.7184 33.7811 18.9506 33.549 18.9506 33.2626C18.9506 32.9762 18.7184 32.7441 18.432 32.7441C18.1454 32.7441 17.9132 32.9762 17.9132 33.2626C17.9132 33.549 18.1454 33.7811 18.432 33.7811ZM22.4757 33.2626C22.4757 33.549 22.2435 33.7811 21.9571 33.7811C21.6706 33.7811 21.4384 33.549 21.4384 33.2626C21.4384 32.9762 21.6706 32.7441 21.9571 32.7441C22.2435 32.7441 22.4757 32.9762 22.4757 33.2626Z" fill="#242124"/>
</svg>
