<svg width="103" height="24" viewBox="0 0 103 24" fill="none" xmlns="http://www.w3.org/2000/svg">
<g style="mix-blend-mode:hard-light" opacity="0.7">
<path d="M22.5665 1.18164C22.3498 1.18164 22.152 1.30237 22.0609 1.49092L14.5028 16.9895C13.925 18.1406 13.6051 18.8253 13.5432 19.0436C13.3368 18.3887 13.0582 17.694 12.7074 16.9597L5.95242 1.51903C5.863 1.3156 5.65491 1.18164 5.42448 1.18164C5.14416 1.18164 4.90513 1.3768 4.85869 1.64307L1.28516 22.6458H2.80193L5.34021 6.54023L5.64976 4.27772C5.87676 4.91281 6.17598 5.64714 6.54744 6.4807L12.8536 21.1639C12.9533 21.3938 13.1855 21.5443 13.4452 21.5443C13.6945 21.5443 13.9198 21.4054 14.0247 21.1887L21.158 6.51046C21.3437 6.09368 21.5243 5.69179 21.6997 5.30478C21.8751 4.91777 21.9989 4.63992 22.0712 4.47122C22.1434 4.30253 22.1898 4.20825 22.2105 4.18841C22.2105 4.70442 22.293 5.46852 22.4581 6.4807L24.8726 22.6458H26.4203L23.1185 1.63811C23.0772 1.37514 22.8416 1.18164 22.5665 1.18164Z" fill="#242124" stroke="#242124" stroke-miterlimit="10"/>
<path d="M48.8019 1.35742C48.3909 1.35742 48.059 1.67662 48.059 2.0719V13.8906C48.059 19.1301 45.6704 21.7498 40.893 21.7498C36.1157 21.7498 33.727 19.1301 33.727 13.8906V2.0719C33.727 1.67662 33.3951 1.35742 32.9841 1.35742C32.5731 1.35742 32.2412 1.67662 32.2412 2.0719V13.8906C32.2412 16.7088 32.9583 18.9316 34.3926 20.559C35.8268 22.1865 37.9988 23.0002 40.9085 23.0002C43.8182 23.0002 45.9851 22.1914 47.409 20.5739C48.8329 18.9564 49.5448 16.7286 49.5448 13.8906V2.0719C49.5448 1.67662 49.2129 1.35742 48.8019 1.35742Z" fill="#242124" stroke="#242124" stroke-miterlimit="10"/>
<path d="M99.7215 3.78367C98.2976 2.16617 96.1307 1.35742 93.221 1.35742C90.3113 1.35742 88.1393 2.17113 86.7051 3.79856C85.2708 5.42598 84.5537 7.64881 84.5537 10.467V22.2857C84.5537 22.681 84.8856 23.0002 85.2966 23.0002C85.7076 23.0002 86.0395 22.681 86.0395 22.2857V10.467C86.0395 5.22752 88.4282 2.60776 93.2055 2.60776C97.9829 2.60776 100.372 5.22752 100.372 10.467V22.2857C100.372 22.681 100.703 23.0002 101.114 23.0002C101.525 23.0002 101.857 22.681 101.857 22.2857V10.467C101.857 7.62896 101.145 5.40117 99.7215 3.78367Z" fill="#242124" stroke="#242124" stroke-miterlimit="10"/>
<path d="M67.033 1C63.8963 1 61.3013 2.05683 59.248 4.1705C57.1946 6.28417 56.168 8.88904 56.168 11.9851C56.168 15.0812 57.1946 17.691 59.248 19.8146C61.3013 21.9382 63.8963 23 67.033 23C70.1698 23 72.77 21.9382 74.8336 19.8146C76.8972 17.691 77.9291 15.0812 77.9291 11.9851C77.9291 8.88904 76.8972 6.28417 74.8336 4.1705C72.77 2.05683 70.1698 1 67.033 1ZM73.7347 18.8917C72.0116 20.7573 69.7828 21.6901 67.0485 21.6901C64.3142 21.6901 62.0855 20.7573 60.3623 18.8917C58.6392 17.0262 57.7776 14.724 57.7776 11.9851C57.7776 9.24628 58.634 6.94903 60.3468 5.09337C62.0597 3.23771 64.2884 2.30988 67.033 2.30988C69.7777 2.30988 72.0116 3.23771 73.7347 5.09337C75.4579 6.94903 76.3194 9.24628 76.3194 11.9851C76.3194 14.724 75.4579 17.0262 73.7347 18.8917Z" fill="#242124" stroke="#242124" stroke-miterlimit="10"/>
</g>
</svg>
