<svg width="15" height="15" viewBox="0 0 15 15" fill="none" xmlns="http://www.w3.org/2000/svg">
<path d="M13.9004 0.146447C14.0956 -0.0487101 14.4122 -0.0487804 14.6074 0.146447C14.8025 0.341682 14.8025 0.658242 14.6074 0.853478L8.08688 7.37203L14.6142 13.8994L14.6797 13.9785C14.8076 14.1725 14.785 14.4356 14.6142 14.6064C14.4434 14.7772 14.1803 14.7998 13.9863 14.6718L13.9072 14.6064L7.37985 8.07906L0.853479 14.6064L0.775354 14.6718C0.581297 14.7998 0.317243 14.7772 0.146448 14.6064C-0.0239974 14.4356 -0.0459021 14.1724 0.0819947 13.9785L0.146448 13.8994L6.67281 7.37203L0.15426 0.853478C-0.0410018 0.658216 -0.0410018 0.341709 0.15426 0.146447C0.349522 -0.0488155 0.666029 -0.0488155 0.861292 0.146447L7.37985 6.665L13.9004 0.146447Z" fill="#242124"/>
</svg>
