<svg width="125" height="17" viewBox="0 0 125 17" fill="none" xmlns="http://www.w3.org/2000/svg">
<g opacity="0.8">
<path opacity="0.9" d="M0.73 14V7H3.12C3.68 7 4.14 7.09333 4.5 7.28C4.86 7.46667 5.12667 7.71667 5.3 8.03C5.47333 8.34333 5.56 8.7 5.56 9.1C5.56 9.48 5.47333 9.83 5.3 10.15C5.13333 10.4633 4.87 10.7167 4.51 10.91C4.15 11.0967 3.68667 11.19 3.12 11.19H1.73V14H0.73ZM1.73 10.36H3.08C3.60667 10.36 3.98 10.2467 4.2 10.02C4.42667 9.78667 4.54 9.48 4.54 9.1C4.54 8.69333 4.42667 8.38 4.2 8.16C3.98 7.94 3.60667 7.83 3.08 7.83H1.73V10.36ZM8.605 14.12C8.13167 14.12 7.705 14.01 7.325 13.79C6.95167 13.57 6.655 13.2633 6.435 12.87C6.22167 12.47 6.115 12.01 6.115 11.49C6.115 10.9567 6.225 10.4933 6.445 10.1C6.665 9.7 6.965 9.39 7.345 9.17C7.725 8.95 8.15167 8.84 8.625 8.84C9.105 8.84 9.53167 8.95 9.905 9.17C10.2783 9.39 10.5717 9.69667 10.785 10.09C11.005 10.4833 11.115 10.9467 11.115 11.48C11.115 12.0133 11.005 12.4767 10.785 12.87C10.5717 13.2633 10.275 13.57 9.895 13.79C9.515 14.01 9.085 14.12 8.605 14.12ZM8.605 13.26C8.87833 13.26 9.125 13.1933 9.345 13.06C9.57167 12.9267 9.75167 12.73 9.885 12.47C10.025 12.2033 10.095 11.8733 10.095 11.48C10.095 11.0867 10.0283 10.76 9.895 10.5C9.76167 10.2333 9.58167 10.0333 9.355 9.9C9.135 9.76667 8.89167 9.7 8.625 9.7C8.35833 9.7 8.11167 9.76667 7.885 9.9C7.65833 10.0333 7.475 10.2333 7.335 10.5C7.20167 10.76 7.135 11.0867 7.135 11.48C7.135 11.8733 7.20167 12.2033 7.335 12.47C7.475 12.73 7.655 12.9267 7.875 13.06C8.10167 13.1933 8.345 13.26 8.605 13.26ZM13.1355 14L11.6555 8.96H12.6455L13.7455 13.16L13.5555 13.15L14.7755 8.96H15.8955L17.1155 13.15L16.9255 13.16L18.0155 8.96H19.0255L17.5455 14H16.5155L15.2355 9.63H15.4355L14.1555 14H13.1355ZM22.0323 14.12C21.5523 14.12 21.1256 14.01 20.7523 13.79C20.3789 13.57 20.0856 13.2633 19.8723 12.87C19.6656 12.4767 19.5623 12.02 19.5623 11.5C19.5623 10.9667 19.6656 10.5033 19.8723 10.11C20.0856 9.71 20.3789 9.4 20.7523 9.18C21.1256 8.95333 21.5589 8.84 22.0523 8.84C22.5456 8.84 22.9689 8.95 23.3223 9.17C23.6756 9.39 23.9489 9.68333 24.1423 10.05C24.3356 10.41 24.4323 10.81 24.4323 11.25C24.4323 11.3167 24.4289 11.39 24.4223 11.47C24.4223 11.5433 24.4189 11.6267 24.4123 11.72H20.2923V11.01H23.4323C23.4123 10.59 23.2723 10.2633 23.0123 10.03C22.7523 9.79 22.4289 9.67 22.0423 9.67C21.7689 9.67 21.5189 9.73333 21.2923 9.86C21.0656 9.98 20.8823 10.16 20.7423 10.4C20.6089 10.6333 20.5423 10.93 20.5423 11.29V11.57C20.5423 11.9433 20.6089 12.26 20.7423 12.52C20.8823 12.7733 21.0656 12.9667 21.2923 13.1C21.5189 13.2267 21.7656 13.29 22.0323 13.29C22.3523 13.29 22.6156 13.22 22.8223 13.08C23.0289 12.94 23.1823 12.75 23.2823 12.51H24.2823C24.1956 12.8167 24.0489 13.0933 23.8423 13.34C23.6356 13.58 23.3789 13.77 23.0723 13.91C22.7723 14.05 22.4256 14.12 22.0323 14.12ZM25.5433 14V8.96H26.4433L26.5333 9.91C26.6466 9.68333 26.7933 9.49333 26.9733 9.34C27.1533 9.18 27.3633 9.05667 27.6033 8.97C27.8499 8.88333 28.1299 8.84 28.4433 8.84V9.9H28.0833C27.8766 9.9 27.6799 9.92667 27.4933 9.98C27.3066 10.0267 27.1399 10.11 26.9933 10.23C26.8533 10.35 26.7433 10.5133 26.6633 10.72C26.5833 10.9267 26.5433 11.1833 26.5433 11.49V14H25.5433ZM31.4952 14.12C31.0152 14.12 30.5885 14.01 30.2152 13.79C29.8418 13.57 29.5485 13.2633 29.3352 12.87C29.1285 12.4767 29.0252 12.02 29.0252 11.5C29.0252 10.9667 29.1285 10.5033 29.3352 10.11C29.5485 9.71 29.8418 9.4 30.2152 9.18C30.5885 8.95333 31.0218 8.84 31.5152 8.84C32.0085 8.84 32.4318 8.95 32.7852 9.17C33.1385 9.39 33.4118 9.68333 33.6052 10.05C33.7985 10.41 33.8952 10.81 33.8952 11.25C33.8952 11.3167 33.8918 11.39 33.8852 11.47C33.8852 11.5433 33.8818 11.6267 33.8752 11.72H29.7552V11.01H32.8952C32.8752 10.59 32.7352 10.2633 32.4752 10.03C32.2152 9.79 31.8918 9.67 31.5052 9.67C31.2318 9.67 30.9818 9.73333 30.7552 9.86C30.5285 9.98 30.3452 10.16 30.2052 10.4C30.0718 10.6333 30.0052 10.93 30.0052 11.29V11.57C30.0052 11.9433 30.0718 12.26 30.2052 12.52C30.3452 12.7733 30.5285 12.9667 30.7552 13.1C30.9818 13.2267 31.2285 13.29 31.4952 13.29C31.8152 13.29 32.0785 13.22 32.2852 13.08C32.4918 12.94 32.6452 12.75 32.7452 12.51H33.7452C33.6585 12.8167 33.5118 13.0933 33.3052 13.34C33.0985 13.58 32.8418 13.77 32.5352 13.91C32.2352 14.05 31.8885 14.12 31.4952 14.12ZM37.2462 14.12C36.7662 14.12 36.3428 14.0067 35.9762 13.78C35.6095 13.5467 35.3228 13.2333 35.1162 12.84C34.9162 12.44 34.8162 11.9867 34.8162 11.48C34.8162 10.9667 34.9162 10.5133 35.1162 10.12C35.3228 9.72667 35.6095 9.41667 35.9762 9.19C36.3495 8.95667 36.7762 8.84 37.2562 8.84C37.6495 8.84 37.9962 8.92 38.2962 9.08C38.5962 9.23333 38.8295 9.45333 38.9962 9.74V6.8H39.9962V14H39.0962L38.9962 13.22C38.8962 13.3733 38.7662 13.52 38.6062 13.66C38.4462 13.7933 38.2528 13.9033 38.0262 13.99C37.7995 14.0767 37.5395 14.12 37.2462 14.12ZM37.4062 13.25C37.7195 13.25 37.9962 13.1767 38.2362 13.03C38.4762 12.8833 38.6595 12.6767 38.7862 12.41C38.9195 12.1433 38.9862 11.8333 38.9862 11.48C38.9862 11.1267 38.9195 10.82 38.7862 10.56C38.6595 10.2933 38.4762 10.0867 38.2362 9.94C37.9962 9.78667 37.7195 9.71 37.4062 9.71C37.1062 9.71 36.8362 9.78667 36.5962 9.94C36.3562 10.0867 36.1695 10.2933 36.0362 10.56C35.9028 10.82 35.8362 11.1267 35.8362 11.48C35.8362 11.8333 35.9028 12.1433 36.0362 12.41C36.1695 12.6767 36.3562 12.8833 36.5962 13.03C36.8362 13.1767 37.1062 13.25 37.4062 13.25ZM43.9722 14V7H46.5622C47.0489 7 47.4555 7.08 47.7822 7.24C48.1089 7.39333 48.3522 7.60667 48.5122 7.88C48.6789 8.14667 48.7622 8.45 48.7622 8.79C48.7622 9.14333 48.6855 9.44 48.5322 9.68C48.3789 9.92 48.1755 10.1067 47.9222 10.24C47.6755 10.3667 47.4089 10.44 47.1222 10.46L47.2622 10.36C47.5689 10.3667 47.8489 10.45 48.1022 10.61C48.3555 10.7633 48.5555 10.97 48.7022 11.23C48.8489 11.49 48.9222 11.7767 48.9222 12.09C48.9222 12.45 48.8355 12.7767 48.6622 13.07C48.4889 13.3567 48.2322 13.5833 47.8922 13.75C47.5522 13.9167 47.1355 14 46.6422 14H43.9722ZM44.9722 13.17H46.5122C46.9522 13.17 47.2922 13.07 47.5322 12.87C47.7789 12.6633 47.9022 12.3733 47.9022 12C47.9022 11.6333 47.7755 11.34 47.5222 11.12C47.2755 10.9 46.9322 10.79 46.4922 10.79H44.9722V13.17ZM44.9722 10.02H46.4522C46.8722 10.02 47.1922 9.92333 47.4122 9.73C47.6322 9.53 47.7422 9.25667 47.7422 8.91C47.7422 8.57667 47.6322 8.31333 47.4122 8.12C47.1922 7.92 46.8622 7.82 46.4222 7.82H44.9722V10.02ZM50.6448 16.2L51.8748 13.44H51.5848L49.5948 8.96H50.6748L52.2548 12.62L53.8448 8.96H54.8948L51.6948 16.2H50.6448Z" fill="#242124"/>
<g style="mix-blend-mode:hard-light" opacity="0.9">
<path d="M76.6962 1.10938C76.5669 1.10938 76.4489 1.1814 76.3946 1.29389L71.8855 10.5402C71.5408 11.2269 71.3499 11.6354 71.313 11.7656C71.1899 11.3749 71.0237 10.9605 70.8144 10.5224L66.7844 1.31066C66.7311 1.1893 66.607 1.10938 66.4695 1.10938C66.3022 1.10938 66.1596 1.2258 66.1319 1.38466L64 13.9147H64.9049L66.4192 4.30625L66.6039 2.95646C66.7393 3.33535 66.9178 3.77344 67.1394 4.27073L70.9016 13.0306C70.9611 13.1677 71.0996 13.2575 71.2545 13.2575C71.4033 13.2575 71.5377 13.1746 71.6003 13.0454L75.8559 4.28849C75.9667 4.03985 76.0745 3.80008 76.1791 3.5692C76.2838 3.33831 76.3576 3.17255 76.4007 3.0719C76.4438 2.97126 76.4715 2.91502 76.4838 2.90318C76.4838 3.21103 76.5331 3.66688 76.6316 4.27073L78.072 13.9147H78.9954L77.0255 1.3817C77.0009 1.22482 76.8603 1.10938 76.6962 1.10938Z" fill="#242124" stroke="#242124" stroke-width="0.5" stroke-miterlimit="10"/>
<path d="M92.3487 1.21094C92.1035 1.21094 91.9055 1.40137 91.9055 1.63719V8.68808C91.9055 11.8139 90.4804 13.3768 87.6303 13.3768C84.7802 13.3768 83.3552 11.8139 83.3552 8.68808V1.63719C83.3552 1.40137 83.1572 1.21094 82.912 1.21094C82.6668 1.21094 82.4688 1.40137 82.4688 1.63719V8.68808C82.4688 10.3694 82.8966 11.6955 83.7522 12.6664C84.6079 13.6373 85.9036 14.1228 87.6396 14.1228C89.3755 14.1228 90.6682 13.6403 91.5177 12.6753C92.3672 11.7103 92.7919 10.3812 92.7919 8.68808V1.63719C92.7919 1.40137 92.5939 1.21094 92.3487 1.21094Z" fill="#242124" stroke="#242124" stroke-width="0.5" stroke-miterlimit="10"/>
<path d="M122.725 2.65841C121.875 1.69343 120.583 1.21094 118.847 1.21094C117.111 1.21094 115.815 1.69639 114.959 2.66729C114.104 3.6382 113.676 4.96431 113.676 6.64563V13.6965C113.676 13.9323 113.874 14.1228 114.119 14.1228C114.364 14.1228 114.562 13.9323 114.562 13.6965V6.64563C114.562 3.51979 115.987 1.95688 118.837 1.95688C121.687 1.95688 123.113 3.51979 123.113 6.64563V13.6965C123.113 13.9323 123.311 14.1228 123.556 14.1228C123.801 14.1228 123.999 13.9323 123.999 13.6965V6.64563C123.999 4.95247 123.574 3.6234 122.725 2.65841Z" fill="#242124" stroke="#242124" stroke-width="0.5" stroke-miterlimit="10"/>
<path d="M103.224 1C101.353 1 99.8047 1.6305 98.5797 2.89149C97.3547 4.15248 96.7422 5.70652 96.7422 7.5536C96.7422 9.40069 97.3547 10.9577 98.5797 12.2246C99.8047 13.4915 101.353 14.125 103.224 14.125C105.096 14.125 106.647 13.4915 107.878 12.2246C109.109 10.9577 109.725 9.40069 109.725 7.5536C109.725 5.70652 109.109 4.15248 107.878 2.89149C106.647 1.6305 105.096 1 103.224 1ZM107.222 11.674C106.194 12.787 104.865 13.3435 103.233 13.3435C101.602 13.3435 100.273 12.787 99.2445 11.674C98.2165 10.561 97.7025 9.18756 97.7025 7.5536C97.7025 5.91964 98.2134 4.54913 99.2353 3.44206C100.257 2.33499 101.587 1.78146 103.224 1.78146C104.862 1.78146 106.194 2.33499 107.222 3.44206C108.25 4.54913 108.764 5.91964 108.764 7.5536C108.764 9.18756 108.25 10.561 107.222 11.674Z" fill="#242124" stroke="#242124" stroke-width="0.5" stroke-miterlimit="10"/>
</g>
</g>
</svg>
